<?xml version="1.0" encoding="UTF-8"?>
<svg xmlns="http://www.w3.org/2000/svg" xmlns:xlink="http://www.w3.org/1999/xlink" width="32px" height="32px" viewBox="0 0 32 32" version="1.1">
<g id="surface1">
<path style=" stroke:none;fill-rule:evenodd;fill:rgb(99.607843%,99.607843%,99.607843%);fill-opacity:1;" d="M -0.0820312 -0.0820312 C 10.582031 -0.0820312 21.25 -0.0820312 31.917969 -0.0820312 C 31.917969 10.582031 31.917969 21.25 31.917969 31.917969 C 21.25 31.917969 10.582031 31.917969 -0.0820312 31.917969 C -0.0820312 21.25 -0.0820312 10.582031 -0.0820312 -0.0820312 Z M -0.0820312 -0.0820312 "/>
<path style=" stroke:none;fill-rule:evenodd;fill:rgb(14.509805%,12.941177%,13.333334%);fill-opacity:1;" d="M 26.25 25.75 C 23.195312 25.75 20.140625 25.75 17.082031 25.75 C 17.082031 25.417969 17.082031 25.082031 17.082031 24.75 C 18.792969 24.945312 19.488281 24.222656 19.167969 22.582031 C 18.851562 21.675781 18.492188 20.785156 18.082031 19.917969 C 15.601562 19.695312 13.128906 19.695312 10.667969 19.917969 C 10.308594 20.929688 9.921875 21.929688 9.5 22.917969 C 9.183594 23.832031 9.492188 24.414062 10.417969 24.667969 C 10.746094 24.75 11.078125 24.777344 11.417969 24.75 C 11.417969 25.082031 11.417969 25.417969 11.417969 25.75 C 9.472656 25.75 7.527344 25.75 5.582031 25.75 C 5.582031 25.417969 5.582031 25.082031 5.582031 24.75 C 6.214844 24.671875 6.742188 24.394531 7.167969 23.917969 C 9.101562 18.777344 11.101562 13.667969 13.167969 8.582031 C 13.140625 7.71875 12.890625 6.914062 12.417969 6.167969 C 14.140625 6.027344 15.863281 6.054688 17.582031 6.25 C 19.890625 11.972656 22.195312 17.695312 24.5 23.417969 C 24.777344 24.277344 25.359375 24.722656 26.25 24.75 C 26.25 25.082031 26.25 25.417969 26.25 25.75 Z M 26.25 25.75 "/>
<path style=" stroke:none;fill-rule:evenodd;fill:rgb(96.862745%,96.862745%,96.862745%);fill-opacity:1;" d="M 17.082031 17.582031 C 16.222656 17.695312 15.335938 17.75 14.417969 17.75 C 13.464844 17.75 12.574219 17.636719 11.75 17.417969 C 12.496094 15.148438 13.359375 12.925781 14.332031 10.75 C 15.363281 12.980469 16.28125 15.257812 17.082031 17.582031 Z M 17.082031 17.582031 "/>
<path style=" stroke:none;fill-rule:evenodd;fill:rgb(69.803923%,69.411767%,69.411767%);fill-opacity:1;" d="M 11.75 17.417969 C 12.574219 17.636719 13.464844 17.75 14.417969 17.75 C 15.335938 17.75 16.222656 17.695312 17.082031 17.582031 C 17.175781 17.59375 17.230469 17.648438 17.25 17.75 C 15.363281 17.917969 13.476562 17.972656 11.582031 17.917969 C 11.542969 17.703125 11.597656 17.535156 11.75 17.417969 Z M 11.75 17.417969 "/>
<path style=" stroke:none;fill-rule:evenodd;fill:rgb(61.176473%,60.392159%,60.784316%);fill-opacity:1;" d="M 11.417969 24.75 C 11.578125 25.101562 11.632812 25.488281 11.582031 25.917969 C 9.554688 25.972656 7.554688 25.914062 5.582031 25.75 C 7.527344 25.75 9.472656 25.75 11.417969 25.75 C 11.417969 25.417969 11.417969 25.082031 11.417969 24.75 Z M 11.417969 24.75 "/>
<path style=" stroke:none;fill-rule:evenodd;fill:rgb(62.7451%,61.960787%,62.352943%);fill-opacity:1;" d="M 17.082031 24.75 C 17.082031 25.082031 17.082031 25.417969 17.082031 25.75 C 20.140625 25.75 23.195312 25.75 26.25 25.75 C 23.167969 25.917969 20.058594 25.972656 16.917969 25.917969 C 16.867188 25.488281 16.921875 25.101562 17.082031 24.75 Z M 17.082031 24.75 "/>
</g>
</svg>
