<?xml version="1.0" encoding="UTF-8"?>
<svg xmlns="http://www.w3.org/2000/svg" xmlns:xlink="http://www.w3.org/1999/xlink" width="32px" height="32px" viewBox="0 0 32 32" version="1.1">
<defs>
<filter id="alpha" filterUnits="objectBoundingBox" x="0%" y="0%" width="100%" height="100%">
  <feColorMatrix type="matrix" in="SourceGraphic" values="0 0 0 0 1 0 0 0 0 1 0 0 0 0 1 0 0 0 1 0"/>
</filter>
<mask id="mask0">
  <g filter="url(#alpha)">
<rect x="0" y="0" width="32" height="32" style="fill:rgb(0%,0%,0%);fill-opacity:0.937255;stroke:none;"/>
  </g>
</mask>
<clipPath id="clip1">
  <rect x="0" y="0" width="32" height="32"/>
</clipPath>
<g id="surface5" clip-path="url(#clip1)">
<path style=" stroke:none;fill-rule:evenodd;fill:rgb(70.19608%,12.54902%,14.509805%);fill-opacity:1;" d="M 4.710938 -0.0898438 C 5.246094 -0.0898438 5.777344 -0.0898438 6.3125 -0.0898438 C 9.570312 3.109375 12.828125 6.3125 16.089844 9.511719 C 16.941406 10.605469 17.949219 11.492188 19.109375 12.179688 C 19.816406 12.972656 20.554688 13.742188 21.332031 14.488281 C 21.914062 15.550781 21.914062 16.617188 21.332031 17.6875 C 20.667969 18.445312 19.925781 19.097656 19.109375 19.644531 C 18.710938 19.335938 18.324219 18.980469 17.957031 18.578125 C 16.355469 16.621094 14.753906 14.667969 13.15625 12.710938 C 13.035156 12.578125 12.886719 12.519531 12.710938 12.535156 C 9.933594 9.074219 7.121094 5.636719 4.265625 2.222656 C 3.816406 1.308594 3.964844 0.535156 4.710938 -0.0898438 Z M 4.710938 -0.0898438 "/>
</g>
<mask id="mask1">
  <g filter="url(#alpha)">
<rect x="0" y="0" width="32" height="32" style="fill:rgb(0%,0%,0%);fill-opacity:0.894118;stroke:none;"/>
  </g>
</mask>
<clipPath id="clip2">
  <rect x="0" y="0" width="32" height="32"/>
</clipPath>
<g id="surface8" clip-path="url(#clip2)">
<path style=" stroke:none;fill-rule:evenodd;fill:rgb(70.19608%,67.058825%,64.313728%);fill-opacity:1;" d="M 19.109375 12.179688 C 17.949219 11.492188 16.941406 10.605469 16.089844 9.511719 C 18.371094 7.378906 20.679688 5.273438 23.023438 3.199219 C 24.039062 2.828125 24.78125 3.15625 25.246094 4.179688 C 25.335938 4.496094 25.277344 4.792969 25.066406 5.066406 C 23.121094 7.476562 21.136719 9.847656 19.109375 12.179688 Z M 19.109375 12.179688 "/>
</g>
<mask id="mask2">
  <g filter="url(#alpha)">
<rect x="0" y="0" width="32" height="32" style="fill:rgb(0%,0%,0%);fill-opacity:0.929412;stroke:none;"/>
  </g>
</mask>
<clipPath id="clip3">
  <rect x="0" y="0" width="32" height="32"/>
</clipPath>
<g id="surface11" clip-path="url(#clip3)">
<path style=" stroke:none;fill-rule:evenodd;fill:rgb(70.19608%,67.058825%,64.313728%);fill-opacity:1;" d="M 12.710938 12.535156 C 12.886719 12.519531 13.035156 12.578125 13.15625 12.710938 C 14.753906 14.667969 16.355469 16.621094 17.957031 18.578125 C 18.324219 18.980469 18.710938 19.335938 19.109375 19.644531 C 21.957031 22.992188 24.769531 26.371094 27.554688 29.777344 C 27.972656 30.570312 27.882812 31.28125 27.289062 31.910156 C 26.753906 31.910156 26.222656 31.910156 25.6875 31.910156 C 22.542969 28.765625 19.34375 25.683594 16.089844 22.667969 C 15.175781 21.664062 14.230469 20.6875 13.246094 19.734375 C 13.074219 19.648438 12.898438 19.617188 12.710938 19.644531 C 12.066406 18.910156 11.382812 18.199219 10.667969 17.511719 C 10.058594 16.414062 10.117188 15.347656 10.84375 14.3125 C 11.449219 13.675781 12.070312 13.085938 12.710938 12.535156 Z M 12.710938 12.535156 "/>
</g>
<mask id="mask3">
  <g filter="url(#alpha)">
<rect x="0" y="0" width="32" height="32" style="fill:rgb(0%,0%,0%);fill-opacity:0.905882;stroke:none;"/>
  </g>
</mask>
<clipPath id="clip4">
  <rect x="0" y="0" width="32" height="32"/>
</clipPath>
<g id="surface14" clip-path="url(#clip4)">
<path style=" stroke:none;fill-rule:evenodd;fill:rgb(70.19608%,12.54902%,14.509805%);fill-opacity:1;" d="M 12.710938 19.644531 C 12.898438 19.617188 13.074219 19.648438 13.246094 19.734375 C 14.230469 20.6875 15.175781 21.664062 16.089844 22.667969 C 13.808594 24.800781 11.496094 26.902344 9.15625 28.976562 C 8.179688 29.382812 7.4375 29.117188 6.933594 28.179688 C 6.792969 27.621094 6.851562 27.085938 7.109375 26.578125 C 8.980469 24.261719 10.847656 21.949219 12.710938 19.644531 Z M 12.710938 19.644531 "/>
</g>
</defs>
<g id="surface1">
<use xlink:href="#surface5" mask="url(#mask0)"/>
<use xlink:href="#surface8" mask="url(#mask1)"/>
<use xlink:href="#surface11" mask="url(#mask2)"/>
<use xlink:href="#surface14" mask="url(#mask3)"/>
</g>
</svg>
