<?xml version="1.0" encoding="UTF-8"?>
<svg xmlns="http://www.w3.org/2000/svg" xmlns:xlink="http://www.w3.org/1999/xlink" width="32px" height="32px" viewBox="0 0 32 32" version="1.1">
<g id="surface1">
<path style=" stroke:none;fill-rule:evenodd;fill:rgb(99.607843%,99.607843%,99.607843%);fill-opacity:1;" d="M -0.0820312 -0.0820312 C 10.582031 -0.0820312 21.25 -0.0820312 31.917969 -0.0820312 C 31.917969 10.582031 31.917969 21.25 31.917969 31.917969 C 21.25 31.917969 10.582031 31.917969 -0.0820312 31.917969 C -0.0820312 21.25 -0.0820312 10.582031 -0.0820312 -0.0820312 Z M -0.0820312 -0.0820312 "/>
<path style=" stroke:none;fill-rule:evenodd;fill:rgb(20.392157%,20.392157%,20.392157%);fill-opacity:1;" d="M 9.082031 8.417969 C 11.542969 8.089844 13.378906 9.007812 14.582031 11.167969 C 15.359375 11.878906 16.195312 11.9375 17.082031 11.332031 C 17.640625 10.667969 18.195312 10 18.75 9.332031 C 20.511719 8.125 22.289062 8.125 24.082031 9.332031 C 24.65625 9.851562 25.019531 10.492188 25.167969 11.25 C 25.019531 13.015625 24.910156 14.796875 24.832031 16.582031 C 25.355469 17.773438 26.273438 18.246094 27.582031 18 C 29.320312 18.910156 29.738281 20.273438 28.832031 22.082031 C 27.863281 23.078125 26.726562 23.328125 25.417969 22.832031 C 24.328125 22 23.96875 20.914062 24.332031 19.582031 C 25.136719 18.164062 24.773438 17.136719 23.25 16.5 C 21.398438 15.742188 19.757812 16.046875 18.332031 17.417969 C 18.222656 17.917969 18.222656 18.417969 18.332031 18.917969 C 19.21875 20.839844 18.691406 22.199219 16.75 23 C 15.082031 23.390625 13.890625 22.808594 13.167969 21.25 C 13.226562 19.964844 13.339844 18.6875 13.5 17.417969 C 12.1875 16.1875 10.660156 15.824219 8.917969 16.332031 C 7.824219 16.617188 7.269531 17.3125 7.25 18.417969 C 7.542969 19.449219 7.628906 20.507812 7.5 21.582031 C 6.523438 23.128906 5.21875 23.488281 3.582031 22.667969 C 2.65625 21.765625 2.351562 20.683594 2.667969 19.417969 C 3.480469 18.09375 4.675781 17.511719 6.25 17.667969 C 6.558594 17.40625 6.808594 17.101562 7 16.75 C 6.996094 14.847656 6.882812 12.960938 6.667969 11.082031 C 7.105469 9.839844 7.910156 8.953125 9.082031 8.417969 Z M 9.082031 8.417969 "/>
<path style=" stroke:none;fill-rule:evenodd;fill:rgb(97.254902%,97.254902%,97.254902%);fill-opacity:1;" d="M 15.082031 12.582031 C 17.703125 12.503906 18.785156 13.726562 18.332031 16.25 C 17.460938 17.746094 16.210938 18.160156 14.582031 17.5 C 12.695312 15.632812 12.863281 13.996094 15.082031 12.582031 Z M 15.082031 12.582031 "/>
</g>
</svg>
