<?xml version="1.0" encoding="UTF-8"?>
<svg xmlns="http://www.w3.org/2000/svg" xmlns:xlink="http://www.w3.org/1999/xlink" width="32px" height="32px" viewBox="0 0 32 32" version="1.1">
<defs>
<filter id="alpha" filterUnits="objectBoundingBox" x="0%" y="0%" width="100%" height="100%">
  <feColorMatrix type="matrix" in="SourceGraphic" values="0 0 0 0 1 0 0 0 0 1 0 0 0 0 1 0 0 0 1 0"/>
</filter>
<mask id="mask0">
  <g filter="url(#alpha)">
<rect x="0" y="0" width="32" height="32" style="fill:rgb(0%,0%,0%);fill-opacity:0.996078;stroke:none;"/>
  </g>
</mask>
<clipPath id="clip1">
  <rect x="0" y="0" width="32" height="32"/>
</clipPath>
<g id="surface5" clip-path="url(#clip1)">
<path style=" stroke:none;fill-rule:evenodd;fill:rgb(98.823529%,98.823529%,98.823529%);fill-opacity:1;" d="M 0.167969 -0.167969 C 10.609375 -0.167969 21.054688 -0.167969 31.5 -0.167969 C 31.5 0.0546875 31.609375 0.167969 31.832031 0.167969 C 31.832031 10.609375 31.832031 21.054688 31.832031 31.5 C 31.609375 31.5 31.5 31.609375 31.5 31.832031 C 21.054688 31.832031 10.609375 31.832031 0.167969 31.832031 C 0.167969 31.609375 0.0546875 31.5 -0.167969 31.5 C -0.167969 21.054688 -0.167969 10.609375 -0.167969 0.167969 C 0.0546875 0.167969 0.167969 0.0546875 0.167969 -0.167969 Z M 0.167969 -0.167969 "/>
</g>
</defs>
<g id="surface1">
<use xlink:href="#surface5" mask="url(#mask0)"/>
<path style=" stroke:none;fill-rule:evenodd;fill:rgb(6.666667%,12.54902%,12.54902%);fill-opacity:1;" d="M 22.167969 3.832031 C 24.046875 3.605469 25.492188 4.273438 26.5 5.832031 C 26.222656 6.136719 25.890625 6.359375 25.5 6.5 C 22.6875 4.402344 21.242188 5.179688 21.167969 8.832031 C 20.882812 10.71875 21.605469 11.941406 23.332031 12.5 C 24.917969 12.332031 25.640625 11.445312 25.5 9.832031 C 24.832031 9.832031 24.167969 9.832031 23.5 9.832031 C 23.5 9.390625 23.5 8.945312 23.5 8.5 C 24.609375 8.5 25.722656 8.5 26.832031 8.5 C 27.15625 13.167969 25.15625 14.667969 20.832031 13 C 20.511719 12.527344 20.234375 12.027344 20 11.5 C 19.777344 9.722656 19.777344 7.945312 20 6.167969 C 20.566406 5.214844 21.285156 4.4375 22.167969 3.832031 Z M 22.167969 3.832031 "/>
<path style=" stroke:none;fill-rule:evenodd;fill:rgb(5.098039%,10.980392%,11.372549%);fill-opacity:1;" d="M 11.5 19.832031 C 10.796875 19.511719 10.019531 19.398438 9.167969 19.5 C 9.058594 21.5625 9.171875 23.5625 9.5 25.5 C 9.503906 26.003906 9.726562 26.394531 10.167969 26.667969 C 10.75 26.734375 11.308594 26.902344 11.832031 27.167969 C 9.5 27.609375 7.167969 27.609375 4.832031 27.167969 C 5.894531 27.046875 6.617188 26.492188 7 25.5 C 7.222656 20.945312 7.222656 16.390625 7 11.832031 C 6.570312 10.953125 5.847656 10.617188 4.832031 10.832031 C 4.832031 10.5 4.832031 10.167969 4.832031 9.832031 C 7.945312 9.777344 11.058594 9.832031 14.167969 10 C 17.488281 11.03125 18.542969 13.199219 17.332031 16.5 C 16.527344 17.917969 15.359375 18.917969 13.832031 19.5 C 15.292969 22.015625 17.070312 24.292969 19.167969 26.332031 C 19.675781 26.667969 20.230469 26.835938 20.832031 26.832031 C 20.832031 27.167969 20.832031 27.5 20.832031 27.832031 C 19.097656 28.082031 17.542969 27.691406 16.167969 26.667969 C 14.480469 24.453125 12.925781 22.175781 11.5 19.832031 Z M 11.5 19.832031 "/>
<path style=" stroke:none;fill-rule:evenodd;fill:rgb(97.254902%,97.254902%,97.254902%);fill-opacity:1;" d="M 9.167969 11.167969 C 11.035156 10.96875 12.8125 11.246094 14.5 12 C 15.953125 14.074219 15.730469 15.960938 13.832031 17.667969 C 12.320312 18.125 10.765625 18.292969 9.167969 18.167969 C 9.167969 15.832031 9.167969 13.5 9.167969 11.167969 Z M 9.167969 11.167969 "/>
<path style=" stroke:none;fill-rule:evenodd;fill:rgb(67.450982%,69.411767%,69.411767%);fill-opacity:1;" d="M 11.5 19.832031 C 10.832031 19.832031 10.167969 19.832031 9.5 19.832031 C 9.5 21.722656 9.5 23.609375 9.5 25.5 C 9.171875 23.5625 9.058594 21.5625 9.167969 19.5 C 10.019531 19.398438 10.796875 19.511719 11.5 19.832031 Z M 11.5 19.832031 "/>
</g>
</svg>
