<?xml version="1.0" encoding="UTF-8"?>
<svg xmlns="http://www.w3.org/2000/svg" xmlns:xlink="http://www.w3.org/1999/xlink" width="32px" height="32px" viewBox="0 0 32 32" version="1.1">
<defs>
<filter id="alpha" filterUnits="objectBoundingBox" x="0%" y="0%" width="100%" height="100%">
  <feColorMatrix type="matrix" in="SourceGraphic" values="0 0 0 0 1 0 0 0 0 1 0 0 0 0 1 0 0 0 1 0"/>
</filter>
<mask id="mask0">
  <g filter="url(#alpha)">
<rect x="0" y="0" width="32" height="32" style="fill:rgb(0%,0%,0%);fill-opacity:0.968627;stroke:none;"/>
  </g>
</mask>
<clipPath id="clip1">
  <rect x="0" y="0" width="32" height="32"/>
</clipPath>
<g id="surface5" clip-path="url(#clip1)">
<path style=" stroke:none;fill-rule:evenodd;fill:rgb(35.294119%,44.705883%,70.980394%);fill-opacity:1;" d="M 19 3.398438 C 17.160156 3.632812 15.320312 3.886719 13.480469 4.160156 C 13.28125 4.257812 13.269531 4.378906 13.441406 4.519531 C 15.207031 4.347656 16.980469 4.210938 18.761719 4.121094 C 18.859375 4.789062 18.964844 5.453125 19.078125 6.121094 C 15.539062 5.945312 12.339844 6.890625 9.480469 8.960938 C 8.738281 9.527344 8.125 10.207031 7.640625 11 C 7.0625 10.382812 6.53125 9.730469 6.039062 9.039062 C 5.425781 9.097656 4.8125 9.191406 4.199219 9.320312 C 4.042969 11.746094 4.003906 14.171875 4.078125 16.601562 C 4.222656 16.746094 4.238281 16.90625 4.121094 17.078125 C 4.375 17.695312 4.625 18.304688 4.878906 18.921875 C 4.953125 19.144531 4.886719 19.304688 4.679688 19.398438 C 4.527344 18.976562 4.378906 18.550781 4.238281 18.121094 C 4.226562 18.585938 4.1875 19.042969 4.121094 19.480469 C 3.792969 19.492188 3.472656 19.453125 3.160156 19.359375 C 3.070312 19.292969 3.015625 19.199219 3 19.078125 C 3.164062 18.492188 3.339844 17.90625 3.519531 17.320312 C 3.636719 16.660156 3.703125 15.992188 3.71875 15.320312 C 3.679688 13.34375 3.625 11.371094 3.558594 9.398438 C 3.347656 9.460938 3.136719 9.472656 2.921875 9.441406 C 5.480469 7.09375 8.039062 4.746094 10.601562 2.398438 C 14.144531 2.148438 17.691406 1.964844 21.238281 1.839844 C 20.503906 2.378906 19.757812 2.898438 19 3.398438 Z M 19 3.398438 "/>
</g>
<mask id="mask1">
  <g filter="url(#alpha)">
<rect x="0" y="0" width="32" height="32" style="fill:rgb(0%,0%,0%);fill-opacity:0.988235;stroke:none;"/>
  </g>
</mask>
<clipPath id="clip2">
  <rect x="0" y="0" width="32" height="32"/>
</clipPath>
<g id="surface8" clip-path="url(#clip2)">
<path style=" stroke:none;fill-rule:evenodd;fill:rgb(92.54902%,92.941177%,94.509804%);fill-opacity:1;" d="M 19 3.398438 C 18.902344 3.632812 18.824219 3.875 18.761719 4.121094 C 16.980469 4.210938 15.207031 4.347656 13.441406 4.519531 C 13.269531 4.378906 13.28125 4.257812 13.480469 4.160156 C 15.320312 3.886719 17.160156 3.632812 19 3.398438 Z M 19 3.398438 "/>
</g>
<mask id="mask2">
  <g filter="url(#alpha)">
<rect x="0" y="0" width="32" height="32" style="fill:rgb(0%,0%,0%);fill-opacity:0.988235;stroke:none;"/>
  </g>
</mask>
<clipPath id="clip3">
  <rect x="0" y="0" width="32" height="32"/>
</clipPath>
<g id="surface11" clip-path="url(#clip3)">
<path style=" stroke:none;fill-rule:evenodd;fill:rgb(91.764706%,39.215687%,27.450982%);fill-opacity:1;" d="M 17.558594 7.160156 C 21.953125 7.148438 25.378906 8.9375 27.839844 12.519531 C 28.164062 13.058594 28.441406 13.617188 28.679688 14.199219 C 28.597656 14.335938 28.488281 14.457031 28.359375 14.558594 C 24.664062 17.113281 20.984375 19.6875 17.320312 22.28125 C 17.660156 22.582031 18.058594 22.753906 18.519531 22.800781 C 20.273438 22.988281 21.902344 22.613281 23.398438 21.679688 C 23.816406 21.359375 24.242188 21.050781 24.679688 20.761719 C 25.890625 22.792969 27.089844 24.832031 28.28125 26.878906 C 24.742188 29.445312 20.796875 30.429688 16.441406 29.839844 C 11.96875 29.261719 8.757812 26.953125 6.800781 22.921875 C 5.941406 20.480469 5.808594 18 6.398438 15.480469 C 7.761719 11.292969 10.574219 8.640625 14.839844 7.519531 C 15.75 7.332031 16.65625 7.214844 17.558594 7.160156 Z M 17.480469 13.640625 C 18.542969 13.558594 19.453125 13.890625 20.199219 14.640625 C 18.324219 15.917969 16.457031 17.210938 14.601562 18.519531 C 14.378906 18.167969 14.269531 17.78125 14.28125 17.359375 C 14.339844 15.234375 15.40625 13.996094 17.480469 13.640625 Z M 17.480469 13.640625 "/>
</g>
<mask id="mask3">
  <g filter="url(#alpha)">
<rect x="0" y="0" width="32" height="32" style="fill:rgb(0%,0%,0%);fill-opacity:0.917647;stroke:none;"/>
  </g>
</mask>
<clipPath id="clip4">
  <rect x="0" y="0" width="32" height="32"/>
</clipPath>
<g id="surface14" clip-path="url(#clip4)">
<path style=" stroke:none;fill-rule:evenodd;fill:rgb(92.156863%,92.54902%,94.509804%);fill-opacity:1;" d="M 4.679688 19.398438 C 4.550781 19.46875 4.402344 19.523438 4.238281 19.558594 C 4.179688 19.554688 4.140625 19.527344 4.121094 19.480469 C 4.1875 19.042969 4.226562 18.585938 4.238281 18.121094 C 4.378906 18.550781 4.527344 18.976562 4.679688 19.398438 Z M 4.679688 19.398438 "/>
</g>
</defs>
<g id="surface1">
<use xlink:href="#surface5" mask="url(#mask0)"/>
<use xlink:href="#surface8" mask="url(#mask1)"/>
<use xlink:href="#surface11" mask="url(#mask2)"/>
<use xlink:href="#surface14" mask="url(#mask3)"/>
</g>
</svg>
